<svg xmlns="http://www.w3.org/2000/svg" xmlns:xlink="http://www.w3.org/1999/xlink" version="1.1" x="0px" y="0px" viewBox="0 0 100 125" enable-background="new 0 0 100 100" xml:space="preserve"><path fill="#000000" d="M93.935,44.975c-0.061-0.6-0.077-2.306-0.257-2.725c-0.18-0.419-3.607-2.916-5.888-3.874  c0,0-1.74-1.318-2.04-1.917c-0.301-0.599-0.84-2.755-0.9-2.935c-0.06-0.18-0.943,1.208-1.079,1.977  c-0.181,1.019,0.06,2.396-0.239,2.576c0,0-1.32-1.198-1.801-1.258c-0.48-0.061-4.144-0.769-5.043-0.77  c-0.76,0-2.525-2.043-5.322-2.18c-2.798-0.136-6.255,1.211-6.854,1.211c-0.599,0-3.479-0.958-3.899-0.958s-8.639-0.899-10.019-0.899  c-1.379,0-8.075-1.049-9.914-1.331c-3.12-0.479-11.175,2.02-15.525,6.363c-3.899,3.894-5.64,8.506-7.439,10.782  c-1.8,2.277-4.86,5.511-7.02,5.511c-2.159,0-3.564-1.357-3.898-1.611c-0.3-0.229-1.11-0.483-1.622,0.11  c-0.398,0.461-0.043,1.302,0.332,1.569c0.298,0.213,2.688,2.067,5.36,2.492c2.222,0.352,4.731-0.41,8.221-3.802  c2.115-2.056,4.145-5.201,5.613-7.44l-0.001,0c0.764-1.151,1.812-1.371,1.288,0.06c-0.524,1.431-4.721,7.403-5.8,7.835  c-0.337,0.134-0.863,0.068-1.187,0.354c-0.325,0.286-0.383,0.805-0.587,1.622c-0.205,0.817-0.341,3.475-0.546,3.951  c-0.205,0.478-0.876,3.629-0.208,5.418c0.393,1.051,0.688,1.459,0.959,1.6c0.567,0.293,2.359,0.096,2.934,0  c0.237-0.04,0.476-0.356,0.5-0.701c0.02-0.315-0.157-0.66-0.322-0.714c-0.347-0.113-0.989,0.061-1.203-0.463  c-0.214-0.521,0.588-5.817,1.479-6.741c1.203-1.247,5.953-1.672,7.51-2.59c0.751-0.444,3.784-2.442,5.341-3.925  c0.422,0.301,0.722,0.625,0.79,1.016c0,0,1.039,6.069,0.639,6.549c-0.399,0.479-1.04,1.038-0.72,1.598  c0.32,0.559,6.64,7.189,8.081,7.189c1.439,0,4.21,0.12,4.639,0.08c0.336-0.033,0.351-0.626,0.269-0.909  c-0.074-0.259-0.662-0.809-0.988-0.793c0,0-1.147,0.051-1.601-0.136c-0.198-0.081-1.284-1.028-2.319-1.811  c-1.331-1.005-2.634-1.975-2.454-3.009c0,0,0.533-2.929,1.092-3.168c0.561-0.239,2.045-5.641,5.801-5.198  c0.756,0.089,3.506,0.073,6.873,0.12c4.066,0.055,8.395-0.415,9.007,0.765c1.121,2.157,2.561,8.067,2.561,8.626  c0,0.56-0.16,0.72,0,1.279c0.16,0.559,1.199,3.913,1.84,3.992c0.641,0.081,3.773,0.4,4.4,0.4c0.551,0,0.595-0.595,0.521-0.959  c-0.073-0.365-0.482-0.817-0.863-0.817c0,0-1.418,0.028-1.594-0.146c-0.176-0.176-1.39-2.045-1.2-3.257c0,0,0.371-3.252,0.606-4.498  c1.145,0.917,4.208,3.085,4.764,3.361c0.649,0.324,0.649,2.737,0.695,2.97s-0.51,0.974-0.695,1.345  c-0.225,0.445,0.854,1.244,1.411,1.29c0.558,0.046,1.218-1.102,1.403-1.612c0.186-0.51-0.062-4.665-0.479-5.499  c-0.418-0.835-2.461-3.479-2.972-4.638c-0.553-1.254,0.507-2.778,0.96-3.347c0.066-0.08,0.132-0.155,0.193-0.229  c0.852-1.014,1.302-1.593,1.649-1.891c0.42-0.359,1.5-0.839,1.801-1.078c0.3-0.24,0.309-0.354,1.27-0.894  c0.959-0.539,6.764,0.165,7.244,0.404c0,0,0.997,0.042,1.661,0.145c0.992,0.154,2.311,0.626,2.705,0.59  c0.66-0.06,1.74-1.071,1.98-1.13c0.24-0.06,1.107-0.773,1.166-1.073C95.058,46.9,93.994,45.574,93.935,44.975z M92.837,44.79  c-0.086,0.594-0.205,1.02-0.68,0.951c-0.474-0.069-0.788-0.606-0.702-1.2c0.087-0.594,0.541-1.02,1.015-0.951  C92.944,43.659,92.923,44.196,92.837,44.79z"/></svg>
